{
  "accessors": [
    {
      "bufferView": 2,
      "componentType": 5126,
      "count": 28078,
      "max": [
        1.6263421773910522,
        4.718001365661621,
        5.280501365661621
      ],
      "min": [
        -1.587830662727356,
        -0.11189103126525879,
        -5.281993389129639
      ],
      "type": "VEC3"
    },
    {
      "bufferView": 2,
      "byteOffset": 336936,
      "componentType": 5126,
      "count": 28078,
      "max": [
        0.9999040365219116,
        0.9994783997535706,
        0.9999507069587708
      ],
      "min": [
        -0.9999968409538269,
        -0.9999511241912842,
        -0.9999330639839172
      ],
      "type": "VEC3"
    },
    {
      "bufferView": 1,
      "componentType": 5126,
      "count": 28078,
      "max": [
        0.991580605506897,
        0.9958052039146423
      ],
      "min": [
        0.00390625,
        0.00390625
      ],
      "type": "VEC2"
    },
    {
      "bufferView": 0,
      "componentType": 5125,
      "count": 150000,
      "type": "SCALAR"
    }
  ],
  "asset": {
    "extras": {
      "author": "Stephengury (https://sketchfab.com/Stephengury)",
      "license": "CC-BY-4.0 (http://creativecommons.org/licenses/by/4.0/)",
      "source": "https://sketchfab.com/3d-models/rhino-297542be5630405ebda68b8bbb3d5205",
      "title": "Rhino"
    },
    "generator": "Sketchfab-15.29.0",
    "version": "2.0"
  },
  "bufferViews": [
    {
      "buffer": 0,
      "byteLength": 600000,
      "name": "floatBufferViews",
      "target": 34963
    },
    {
      "buffer": 0,
      "byteLength": 224624,
      "byteOffset": 600000,
      "byteStride": 8,
      "name": "floatBufferViews",
      "target": 34962
    },
    {
      "buffer": 0,
      "byteLength": 673872,
      "byteOffset": 824624,
      "byteStride": 12,
      "name": "floatBufferViews",
      "target": 34962
    }
  ],
  "buffers": [
    {
      "byteLength": 1498496,
      "uri": "scene.bin"
    }
  ],
  "extensionsRequired": [
    "KHR_materials_pbrSpecularGlossiness"
  ],
  "extensionsUsed": [
    "KHR_materials_pbrSpecularGlossiness"
  ],
  "images": [
    {
      "uri": "textures/White_RhinocerosWhite_Rhinoceros1_diffuse.jpeg"
    }
  ],
  "materials": [
    {
      "doubleSided": true,
      "extensions": {
        "KHR_materials_pbrSpecularGlossiness": {
          "diffuseFactor": [
            0.8,
            0.8,
            0.8,
            1.0
          ],
          "diffuseTexture": {
            "index": 0
          },
          "glossinessFactor": 0.42068965517241375,
          "specularFactor": [
            0.0,
            0.0,
            0.0
          ]
        }
      },
      "name": "White_RhinocerosWhite_Rhinoceros1"
    }
  ],
  "meshes": [
    {
      "name": "White_Rhinoceros:Mesh_White_Rhinoceros:White_Rhinoceros1_0",
      "primitives": [
        {
          "attributes": {
            "NORMAL": 1,
            "POSITION": 0,
            "TEXCOORD_0": 2
          },
          "indices": 3,
          "material": 0,
          "mode": 4
        }
      ]
    }
  ],
  "nodes": [
    {
      "children": [
        1
      ],
      "matrix": [
        1.0,
        0.0,
        0.0,
        0.0,
        0.0,
        2.220446049250313e-16,
        -1.0,
        0.0,
        0.0,
        1.0,
        2.220446049250313e-16,
        0.0,
        0.0,
        0.0,
        0.0,
        1.0
      ],
      "name": "Sketchfab_model"
    },
    {
      "children": [
        2
      ],
      "matrix": [
        1.0,
        0.0,
        0.0,
        0.0,
        0.0,
        0.0,
        1.0,
        0.0,
        0.0,
        -1.0,
        0.0,
        0.0,
        0.0,
        0.0,
        0.0,
        1.0
      ],
      "name": "Rhinoceros.FBX"
    },
    {
      "children": [
        3
      ],
      "name": "RootNode"
    },
    {
      "children": [
        4
      ],
      "matrix": [
        0.3621639907360077,
        0.0,
        0.0,
        0.0,
        0.0,
        0.36216399073600286,
        5.9004004547798896e-08,
        0.0,
        0.0,
        -5.9004004547798896e-08,
        0.36216399073600286,
        0.0,
        0.004267394542694092,
        -4.2893073981531415e-08,
        0.6013239622116089,
        1.0
      ],
      "name": "White_Rhinoceros:Mesh"
    },
    {
      "mesh": 0,
      "name": "White_Rhinoceros:Mesh_White_Rhinoceros:White_Rhinoceros1_0"
    }
  ],
  "samplers": [
    {
      "magFilter": 9729,
      "minFilter": 9987,
      "wrapS": 10497,
      "wrapT": 10497
    }
  ],
  "scene": 0,
  "scenes": [
    {
      "name": "Sketchfab_Scene",
      "nodes": [
        0
      ]
    }
  ],
  "textures": [
    {
      "sampler": 0,
      "source": 0
    }
  ]
}
